<svg xmlns="http://www.w3.org/2000/svg" viewBox="0 0 1000 780" role="img" aria-labelledby="title desc">
  <title id="title">Familia com bebê em um quarto infantil claro</title>
  <desc id="desc">Ilustracao leve para o Radar do Berço com bebê, berco e economia famíliar.</desc>
  <defs>
    <linearGradient id="wall" x1="0" y1="0" x2="1" y2="1">
      <stop offset="0" stop-color="#fff7f2"/>
      <stop offset="0.52" stop-color="#ffffff"/>
      <stop offset="1" stop-color="#eef3ff"/>
    </linearGradient>
    <linearGradient id="violet" x1="0" y1="0" x2="1" y2="1">
      <stop offset="0" stop-color="#6c8cff"/>
      <stop offset="1" stop-color="#5b4cf0"/>
    </linearGradient>
    <filter id="soft" x="-20%" y="-20%" width="140%" height="140%">
      <feDropShadow dx="0" dy="20" stdDeviation="24" flood-color="#2b2b67" flood-opacity="0.18"/>
    </filter>
  </defs>
  <rect width="1000" height="780" fill="url(#wall)"/>
  <circle cx="835" cy="160" r="170" fill="#ffe7d3" opacity="0.62"/>
  <circle cx="190" cy="660" r="230" fill="#dceaff" opacity="0.72"/>
  <g opacity="0.36" stroke="#6c8cff" stroke-width="3" fill="none">
    <path d="M80 620c80-82 210-82 290 0"/>
    <path d="M43 657c103-111 267-111 370 0"/>
    <path d="M10 700c127-145 330-145 456 0"/>
  </g>
  <g transform="translate(120 94)">
    <rect x="335" y="278" width="420" height="250" rx="34" fill="#fff" filter="url(#soft)"/>
    <rect x="380" y="300" width="310" height="18" rx="9" fill="#edf1ff"/>
    <rect x="382" y="345" width="28" height="130" rx="14" fill="#6c8cff" opacity="0.55"/>
    <rect x="440" y="345" width="28" height="130" rx="14" fill="#6c8cff" opacity="0.55"/>
    <rect x="498" y="345" width="28" height="130" rx="14" fill="#6c8cff" opacity="0.55"/>
    <rect x="556" y="345" width="28" height="130" rx="14" fill="#6c8cff" opacity="0.55"/>
    <rect x="614" y="345" width="28" height="130" rx="14" fill="#6c8cff" opacity="0.55"/>
    <rect x="356" y="462" width="355" height="32" rx="16" fill="url(#violet)"/>
    <rect x="338" y="520" width="74" height="30" rx="15" fill="#dde5ff"/>
    <rect x="630" y="520" width="74" height="30" rx="15" fill="#dde5ff"/>
  </g>
  <g transform="translate(205 168)">
    <path d="M335 220c-17-75 30-151 102-168 77-18 155 32 174 111 17 72-20 141-88 169-69 28-170 4-188-112z" fill="#a86a42"/>
    <path d="M396 118c61-48 143-1 159 61 17 68-27 127-90 144-62 17-124-29-139-91-10-41 10-87 70-114z" fill="#f0b68f"/>
    <circle cx="444" cy="192" r="63" fill="#ffd6bd"/>
    <path d="M382 189c31-42 84-58 132-25 3-43-45-78-96-63-43 13-65 47-36 88z" fill="#7d4328"/>
    <circle cx="421" cy="196" r="6" fill="#40231b"/>
    <circle cx="474" cy="196" r="6" fill="#40231b"/>
    <path d="M432 232c17 13 39 12 55-2" stroke="#a85c44" stroke-width="6" stroke-linecap="round"/>
    <path d="M315 350c50-66 177-75 265-27 75 41 111 115 103 187H265c-3-61 8-116 50-160z" fill="#ffffff"/>
    <path d="M300 409c78 36 256 33 365-8 12 34 19 70 18 109H265c-2-37 8-72 35-101z" fill="#e8eeff"/>
  </g>
  <g transform="translate(250 428)">
    <ellipse cx="205" cy="94" rx="142" ry="86" fill="#d9e6ff"/>
    <circle cx="145" cy="62" r="52" fill="#ffd8bf"/>
    <path d="M99 64c21-47 88-63 126-18 13 16 16 32 12 48-22-20-69-34-138-30z" fill="#8a5837"/>
    <circle cx="130" cy="68" r="5" fill="#40231b"/>
    <circle cx="170" cy="70" r="5" fill="#40231b"/>
    <path d="M133 96c16 12 34 12 49 0" stroke="#ad6650" stroke-width="5" stroke-linecap="round"/>
    <path d="M205 55c69 6 112 54 116 115-54 35-162 31-226-1 7-61 48-107 110-114z" fill="#edf3ff"/>
    <path d="M245 52c16 18 31 48 25 79" stroke="#6c8cff" stroke-width="13" stroke-linecap="round"/>
    <path d="M180 123c42 17 86 15 131-6" stroke="#ffffff" stroke-width="14" stroke-linecap="round"/>
  </g>
  <g transform="translate(690 232)" filter="url(#soft)">
    <rect width="210" height="175" rx="34" fill="#ffffff" opacity="0.94"/>
    <circle cx="68" cy="72" r="42" fill="url(#violet)"/>
    <path d="M48 80c13 28 54 30 73-2" stroke="#ffd08a" stroke-width="13" stroke-linecap="round"/>
    <circle cx="55" cy="60" r="9" fill="#ffd08a"/>
    <circle cx="101" cy="60" r="9" fill="#ffd08a"/>
    <path d="M142 54h34M142 82h48M142 110h28" stroke="#090a3d" stroke-width="10" stroke-linecap="round"/>
    <path d="M68 29c9-18 25-24 39-20" stroke="#ffb03a" stroke-width="10" stroke-linecap="round"/>
  </g>
</svg>
